<?xml version="1.0" encoding="UTF-8" standalone="no"?>
<!-- Created with Inkscape (http://www.inkscape.org/) -->

<svg
   width="99.437805mm"
   height="99.250572mm"
   viewBox="0 0 99.437805 99.250572"
   version="1.1"
   id="svg1"
   inkscape:version="1.4.2 (f4327f4, 2025-05-13)"
   sodipodi:docname="icon-up.svg"
   inkscape:export-filename="Icon - V3.1.1.jpg"
   inkscape:export-xdpi="96"
   inkscape:export-ydpi="96"
   xmlns:inkscape="http://www.inkscape.org/namespaces/inkscape"
   xmlns:sodipodi="http://sodipodi.sourceforge.net/DTD/sodipodi-0.dtd"
   xmlns="http://www.w3.org/2000/svg"
   xmlns:svg="http://www.w3.org/2000/svg">
  <sodipodi:namedview
     id="namedview1"
     pagecolor="#ffffff"
     bordercolor="#000000"
     borderopacity="0.25"
     inkscape:showpageshadow="2"
     inkscape:pageopacity="0.0"
     inkscape:pagecheckerboard="true"
     inkscape:deskcolor="#d1d1d1"
     inkscape:document-units="mm"
     inkscape:zoom="1.0396254"
     inkscape:cx="189.49133"
     inkscape:cy="239.50935"
     inkscape:window-width="2560"
     inkscape:window-height="1364"
     inkscape:window-x="0"
     inkscape:window-y="2160"
     inkscape:window-maximized="0"
     inkscape:current-layer="layer1"
     inkscape:export-bgcolor="#ffffffff" />
  <defs
     id="defs1" />
  <g
     inkscape:label="Layer 1"
     inkscape:groupmode="layer"
     id="layer1"
     transform="translate(-55.043063,-85.126349)">
    <g
       id="g1"
       transform="rotate(90,104.76192,134.75163)">
      <path
         class="st0"
         d="m 110.20941,159.95588 v 11.19187 c 0,5.50333 -3.59833,13.22917 -11.588749,13.22917 -6.006042,0 -9.948334,-3.96875 -11.509375,-5.87375 -6.006042,-0.18521 -10.715625,-2.01084 -13.97,-5.47688 -3.704167,-3.91583 -4.471458,-8.83708 -4.60375,-11.29771 -7.567083,-4.07458 -9.816042,-9.81604 -10.345208,-13.99645 -0.396875,-3.12209 0.105833,-5.82084 0.529166,-7.35542 -1.42875,-1.905 -3.968749,-6.32354 -3.651249,-13.41437 0.343958,-7.72584 6.799791,-13.04396 9.789583,-15.10771 -0.582084,-2.72521 -0.926042,-8.06979 3.254375,-12.964586 4.471458,-5.23875 11.43,-5.609167 14.472708,-5.476875 5.027083,-7.77875 12.329583,-9.154583 17.224375,-7.858125 5.953124,1.561042 9.789584,6.720417 9.789584,13.123333 v 14.393333 c 0,1.21708 -0.97896,2.2225 -2.2225,2.2225 v 0 c -1.21708,0 -2.2225,-0.97896 -2.2225,-2.2225 V 98.704836 c 0,-4.339167 -2.54,-7.805209 -6.508751,-8.863542 -3.783542,-1.005416 -9.181042,0.3175 -12.964583,6.985 -0.449792,0.79375 -1.322917,1.217083 -2.2225,1.11125 -0.07937,0 -7.831667,-0.978958 -11.985625,3.862916 -4.101042,4.78896 -2.010833,10.18646 -1.984375,10.23938 0.423333,1.03187 0,2.2225 -0.978958,2.75166 -0.07937,0.0529 -8.704792,5.00063 -9.022292,12.3825 -0.343958,7.51417 3.095625,10.98021 3.227917,11.1125 0.661458,0.635 0.846666,1.56104 0.529166,2.40771 -0.185208,0.44979 -4.312708,11.56229 8.440209,17.64771 0.820208,0.39687 1.322916,1.24354 1.243541,2.14312 0,0.0529 -0.264583,5.60917 3.439584,9.525 2.566458,2.69875 6.508749,4.07459 11.721041,4.07459 h 0.132292 c 0.767291,0 1.455208,0.39687 1.852083,1.03187 0.02646,0.0265 3.227917,4.84188 8.519583,4.84188 5.423958,0 7.170208,-5.92667 7.170208,-8.81063 V 159.8765 c 0,-1.24354 1.03188,-2.24896 2.27542,-2.2225 1.24354,0.0265 2.16958,1.08479 2.16958,2.30188 z"
         id="path10"
         style="fill:#007ce8;fill-opacity:1;stroke-width:0.264583" />
      <path
         class="st0"
         d="m 152.70149,141.96421 -3.86291,5.55625 -22.38375,32.01458 c -2.16959,2.93688 -5.60917,4.68313 -9.26042,4.68313 h -10.55687 c 4.52437,-3.25438 6.64104,-9.10167 6.64104,-13.67896 v -11.16542 c 0,-0.15875 0,-0.34396 -0.0265,-0.50271 v -1.19062 l 2.96333,-2.03729 c 3.28084,-2.24896 5.23875,-5.97958 5.23875,-9.97479 v -17.99167 c 0,-4.04812 -2.03729,-7.83167 -5.3975,-10.08062 l -3.43958,-2.27542 v -13.46729 l 0.0529,-8.307919 c 0,-2.275417 -1.11125,-4.894792 -2.8575,-6.455833 -0.82021,-0.873125 -1.82563,-1.190625 -2.3548,-1.322917 -0.0264,0 -0.0529,0 -0.0794,-0.02646 -0.0794,-0.02646 -0.15875,-0.02646 -0.23813,-0.05292 h 7.69938 c 6.16479,0 7.19667,1.74625 18.52083,17.753539 5.47688,7.72583 11.08604,15.66333 15.45167,21.77521 1.42875,2.01083 2.72521,3.83645 3.83646,5.3975 2.43416,3.41312 2.43416,7.96395 0.0529,11.35062 z"
         id="path11"
         style="fill:#007ce8;fill-opacity:1;stroke-width:0.264583" />
      <path
         class="st1"
         d="m 100.39337,130.29609 -7.328959,-7.24959 v -10.18646 c 2.54,-0.8202 4.392083,-3.22791 4.392083,-6.05895 0,-3.51896 -2.8575,-6.37646 -6.376458,-6.37646 -3.518959,0 -6.376459,2.8575 -6.376459,6.37646 0,2.83104 1.852084,5.23875 4.392084,6.05895 v 11.82688 l 9.630833,9.55146 h 19.605626 v -3.94229 z m -9.286876,-21.0873 c -1.349375,0 -2.434167,-1.08479 -2.434167,-2.43416 0,-1.34938 1.084792,-2.43417 2.434167,-2.43417 1.349375,0 2.434167,1.08479 2.434167,2.43417 0,1.34937 -1.084792,2.43416 -2.434167,2.43416 z"
         id="path13"
         style="fill:#1cd000;fill-opacity:1;stroke-width:0.264583" />
      <path
         class="st1"
         d="m 79.729411,150.58963 c 0.529167,-0.92604 0.846667,-2.01084 0.846667,-3.175 0,-3.51896 -2.8575,-6.37646 -6.376459,-6.37646 -3.518958,0 -6.376458,2.8575 -6.376458,6.37646 0,3.51896 2.8575,6.37646 6.376458,6.37646 0.926042,0 1.799167,-0.21167 2.592917,-0.55563 l 6.164791,6.16479 v 5.715 c 0,1.08479 0.873125,1.98438 1.984375,1.98438 1.11125,0 1.984375,-0.87313 1.984375,-1.98438 v -7.35542 z m -5.529792,-0.76729 c -1.349375,0 -2.434166,-1.0848 -2.434166,-2.43417 0,-1.34938 1.084791,-2.43417 2.434166,-2.43417 1.349375,0 2.434167,1.08479 2.434167,2.43417 0,1.34937 -1.11125,2.43417 -2.434167,2.43417 z"
         id="path14"
         style="fill:#1cd000;fill-opacity:1;stroke-width:0.264583" />
      <path
         class="st1"
         d="m 89.148577,141.51442 -9.657291,-10.02771 v -4.97417 c 2.566458,-0.84666 4.392083,-3.22791 4.392083,-6.05895 0,-3.51896 -2.8575,-6.37646 -6.376458,-6.37646 -3.518958,0 -6.376458,2.8575 -6.376458,6.37646 0,2.83104 1.852083,5.23875 4.392083,6.05895 v 6.56167 l 11.932708,12.40896 h 30.929796 v -3.96875 z M 77.506911,122.86129 c -1.349375,0 -2.434167,-1.08479 -2.434167,-2.43416 0,-1.34938 1.084792,-2.43417 2.434167,-2.43417 1.322917,0 2.434167,1.08479 2.434167,2.43417 0,1.34937 -1.11125,2.43416 -2.434167,2.43416 z"
         id="path15"
         style="fill:#1cd000;fill-opacity:1;stroke-width:0.264583" />
      <path
         class="st1"
         d="m 94.228577,156.30463 v 13.6525 c 0,1.08479 0.873125,1.98437 1.984375,1.98437 1.084792,0 1.984375,-0.87312 1.984375,-1.98437 v -11.93271 l 4.736043,-4.49792 h 6.11187 v -3.94229 h -7.67291 z"
         id="path16"
         style="fill:#1cd000;fill-opacity:1;stroke-width:0.264583" />
    </g>
  </g>
</svg>
