<?xml version="1.0" encoding="UTF-8" standalone="no"?>
<!-- Generator: Adobe Illustrator 24.0.0, SVG Export Plug-In . SVG Version: 6.00 Build 0)  -->

<svg
   version="1.1"
   id="Layer_1"
   x="0px"
   y="0px"
   viewBox="0 0 1991.2444 221.58965"
   xml:space="preserve"
   sodipodi:docname="logo-text.svg"
   inkscape:version="1.4.2 (f4327f4, 2025-05-13)"
   width="1991.2444"
   height="221.58965"
   inkscape:export-filename="logo-text.jpg"
   inkscape:export-xdpi="96"
   inkscape:export-ydpi="96"
   xmlns:inkscape="http://www.inkscape.org/namespaces/inkscape"
   xmlns:sodipodi="http://sodipodi.sourceforge.net/DTD/sodipodi-0.dtd"
   xmlns="http://www.w3.org/2000/svg"
   xmlns:svg="http://www.w3.org/2000/svg"><defs
   id="defs16" /><sodipodi:namedview
   id="namedview16"
   pagecolor="#505050"
   bordercolor="#ffffff"
   borderopacity="1"
   inkscape:showpageshadow="0"
   inkscape:pageopacity="0"
   inkscape:pagecheckerboard="1"
   inkscape:deskcolor="#d4d4d4"
   showgrid="true"
   inkscape:zoom="0.83831119"
   inkscape:cx="905.98814"
   inkscape:cy="85.88696"
   inkscape:window-width="2560"
   inkscape:window-height="1364"
   inkscape:window-x="0"
   inkscape:window-y="2160"
   inkscape:window-maximized="0"
   inkscape:current-layer="Layer_1"
   showguides="true"><inkscape:grid
     id="grid3"
     units="px"
     originx="-4.9658216"
     originy="-139.20517"
     spacingx="1"
     spacingy="1"
     empcolor="#0099e5"
     empopacity="0.30196078"
     color="#0099e5"
     opacity="0.14902"
     empspacing="5"
     enabled="true"
     visible="true" /></sodipodi:namedview>
<style
   type="text/css"
   id="style1">
	.st0{fill:#162F4E;}
	.st1{fill:#1E8449;}
	.st2{fill:none;}
</style>



















<polygon
   class="st0"
   points="422.5,135.7 422.5,94.4 461.5,94.4 461.5,77.1 422.5,77.1 422.5,50.6 466.3,50.6 466.3,33.1 401.7,33.1 401.7,135.7 "
   id="polygon1"
   style="fill:#007ce8;fill-opacity:1"
   transform="matrix(1.5187774,0,0,1.5187774,-610.09288,-16.630601)" /><path
   class="st0"
   d="m 164.02796,74.951679 c -34.47625,0 -57.25791,23.38917 -57.25791,57.106031 v 2.88567 c 0,34.02062 22.62978,57.40979 57.25791,57.40979 34.62812,0 57.2579,-23.38917 57.2579,-57.40979 v -2.58192 c 0.15188,-34.020611 -22.62978,-57.409781 -57.2579,-57.409781 z m 26.73048,59.991701 c 0,21.8704 -8.80891,33.86874 -26.57861,33.86874 -17.76969,0 -26.5786,-11.99834 -26.5786,-33.86874 v -2.88567 c 0,-21.71852 8.80891,-33.564981 26.5786,-33.564981 17.7697,0 26.57861,11.846461 26.57861,33.868731 z"
   id="path1"
   style="fill:#007ce8;fill-opacity:1;stroke-width:1.51878" /><path
   class="st0"
   d="m 308.31181,76.470449 c -1.67066,-0.45563 -4.55633,-0.60751 -6.68262,-0.60751 -16.4028,0 -27.48987,10.17581 -32.80559,23.69293 l -0.60751,-21.71852 H 238.90368 V 189.61937 h 30.22367 v -53.9166 c 0,-19.7441 10.63144,-30.52742 30.67931,-30.52742 2.88567,0 6.22698,0.15188 8.50515,0.45563 z"
   id="path2"
   style="fill:#007ce8;fill-opacity:1;stroke-width:1.51878" /><polygon
   class="st0"
   points="643.4,114.6 630.2,62.1 610.1,62.1 631.8,135.7 652.7,135.7 666.4,84.2 680.2,135.7 701.1,135.7 723,62.1 703.4,62.1 689.7,114.9 676.5,62.1 656.7,62.1 "
   id="polygon2"
   style="fill:#007ce8;fill-opacity:1"
   transform="matrix(1.5187774,0,0,1.5187774,-610.09288,-16.630601)" /><path
   class="st0"
   d="m 549.18991,74.951679 c -29.00865,0 -48.60088,13.36524 -50.42341,37.210041 h 28.55301 c 1.06315,-9.56829 8.80891,-14.276501 21.26288,-14.276501 13.21337,0 19.28848,5.619471 19.28848,14.884011 v 6.53075 l -41.00699,5.92323 c -20.35162,2.88568 -32.50184,14.12463 -32.50184,33.10935 0,19.7441 15.18778,34.02061 37.66568,34.02061 16.4028,0 29.46428,-7.74576 36.1469,-19.89598 l 1.06315,17.16218 h 27.9455 v -76.3945 C 596.87952,89.835699 579.2617,74.951679 549.18991,74.951679 Z m 18.52908,73.660701 c 0,12.3021 -12.15022,20.95913 -26.73048,20.95913 -11.08708,0 -17.46594,-4.70821 -17.46594,-12.75773 0,-7.74577 4.70821,-11.69459 14.12463,-13.06149 l 30.22367,-4.1007 v 8.96079 z"
   id="path3"
   style="fill:#007ce8;fill-opacity:1;stroke-width:1.51878" /><path
   class="st0"
   d="m 650.1886,135.5509 c 0,-19.74411 10.63144,-30.52743 30.67931,-30.52743 2.88567,0 6.22698,0.15188 8.50515,0.45563 V 76.470449 c -1.67066,-0.45563 -4.55633,-0.60751 -6.68262,-0.60751 -16.4028,0 -27.48987,10.17581 -32.80559,23.69293 l -0.60751,-21.71852 H 620.11681 V 189.61937 h 30.22367 V 135.5509 Z"
   id="path4"
   style="fill:#007ce8;fill-opacity:1;stroke-width:1.51878" /><path
   class="st0"
   d="m 787.48608,29.084599 v 63.63677 c -6.53074,-10.02393 -18.22533,-17.76969 -34.62813,-17.76969 -29.91991,0 -47.84148,24.30044 -47.84148,57.257911 v 2.88567 c 0,33.41311 18.68096,57.40979 48.60087,57.40979 18.22533,0 30.0718,-10.32769 35.23564,-20.35162 l 0.91127,17.46594 h 28.09738 V 29.084599 Z m 1.06314,105.858781 c 0,21.8704 -9.11266,34.02062 -26.42672,34.02062 -17.16219,0 -26.42673,-12.15022 -26.42673,-34.02062 v -2.88567 c 0,-21.8704 9.26454,-34.020621 26.42673,-34.020621 17.31406,0 26.42672,12.150221 26.42672,34.020621 z"
   id="path5"
   style="fill:#007ce8;fill-opacity:1;stroke-width:1.51878" /><g
   id="g4"
   transform="matrix(1.5187774,0,0,1.5187774,-410.55469,-349.40794)"
   style="fill:#007ce8;fill-opacity:1"><polygon
     class="st0"
     points="451.4,321.4 480,321.4 480,304.1 401.7,304.1 401.7,321.4 430.5,321.4 430.5,405.5 451.4,405.5 "
     id="polygon5"
     style="fill:#007ce8;fill-opacity:1"
     transform="translate(641.40298,-55.641292)" /><path
     class="st0"
     d="m 1172.703,274.35871 c -11.7,0 -19.1,6 -22.9,12.6 v -42.7 h -20.1 v 105.6 h 19.9 v -40.8 c 0,-11.7 6.3,-18.5 15.5,-18.5 9.5,0 13.2,6.3 13.2,17 v 42.4 h 19.8 v -47.4 c 0.1,-16.7 -7.2,-28.2 -25.4,-28.2 z"
     id="path6"
     style="fill:#007ce8;fill-opacity:1" /><rect
     x="1210.0029"
     y="276.15869"
     class="st0"
     width="19.9"
     height="73.599998"
     id="rect6"
     style="fill:#007ce8;fill-opacity:1" /><path
     class="st0"
     d="m 1284.703,274.35871 c -12.3,0 -19.5,6.4 -23.2,13.3 l -0.6,-11.4 h -19.2 v 73.6 h 19.9 v -40.8 c 0,-11.7 6.3,-18.5 15.5,-18.5 9.5,0 13.2,6.3 13.2,17 v 42.4 h 19.8 v -47.4 c 0.1,-16.7 -7.2,-28.2 -25.4,-28.2 z"
     id="path7"
     style="fill:#007ce8;fill-opacity:1" /><polygon
     class="st0"
     points="749.7,331.8 726.3,331.8 700.3,358.2 700.3,299.8 680.3,299.8 680.3,405.5 700.3,405.5 700.3,379.2 707.2,372.2 728.6,405.5 750.8,405.5 721.3,360.1 "
     id="polygon7"
     style="fill:#007ce8;fill-opacity:1"
     transform="translate(641.40298,-55.641292)" /><rect
     x="1398.303"
     y="276.15869"
     class="st0"
     width="19.9"
     height="73.599998"
     id="rect7"
     style="fill:#007ce8;fill-opacity:1" /><path
     class="st0"
     d="m 1472.803,274.35871 c -12.3,0 -19.5,6.4 -23.2,13.3 l -0.6,-11.4 h -19.2 v 73.6 h 19.9 v -40.8 c 0,-11.7 6.3,-18.5 15.5,-18.5 9.5,0 13.2,6.3 13.2,17 v 42.4 h 19.8 v -47.4 c 0.1,-16.7 -7.2,-28.2 -25.4,-28.2 z"
     id="path8"
     style="fill:#007ce8;fill-opacity:1" /><path
     class="st0"
     d="m 1563.003,276.15871 -0.6,11.3 c -3.6,-6.5 -11.7,-13.1 -23.8,-13.1 -19.5,0 -31.5,16 -31.5,36.2 v 1.6 c 0,20.4 12.3,36.4 32,36.4 10.7,0 18.4,-5.4 22.2,-12.3 v 10.1 c 0,9.6 -5.3,15.3 -16.5,15.3 -9.4,0 -13.8,-2.9 -14.7,-8.4 h -21.3 c 1.4,13.4 13.1,22.7 34.7,22.7 24.5,0 37.9,-11.4 37.9,-31.8 v -67.9 h -18.4 z m -0.8,36 c 0,13 -6,21 -17.4,21 -11.2,0 -17.4,-8 -17.4,-21 v -1.6 c 0,-13 6.1,-21 17.4,-21 11.4,0 17.4,8 17.4,21 z"
     id="path9"
     style="fill:#007ce8;fill-opacity:1" /><circle
     class="st0"
     cx="1408.603"
     cy="241.15869"
     r="11.1"
     id="circle9"
     style="fill:#007ce8;fill-opacity:1" /><circle
     class="st0"
     cx="1220.303"
     cy="241.15869"
     r="11.1"
     id="circle10"
     style="fill:#007ce8;fill-opacity:1" /></g><path
   class="st1"
   d="M 1081.8742,27.160439 H 909.05889 c -11.33451,0 -20.60828,9.10012 -20.60828,20.22249 V 174.20677 c 0,11.12235 9.27377,20.22246 20.60828,20.22246 H 1081.727 c 11.3347,0 20.6083,-9.10011 20.6083,-20.22246 V 47.382929 c 0.1471,-11.12237 -9.1265,-20.22249 -20.4611,-20.22249 z M 954.39733,170.16226 H 925.39837 V 51.571859 h 28.99896 z M 1066.5652,76.849959 h -31.0596 V 170.30671 H 1005.918 V 76.849959 h -32.38451 l -5.59361,-25.13366 h 105.24942 z"
   id="path12"
   style="fill:#1cd000;fill-opacity:1;stroke-width:1.45818" />




</svg>
