<?xml version="1.0" encoding="UTF-8" standalone="no"?>
<!-- Generator: Adobe Illustrator 24.0.0, SVG Export Plug-In . SVG Version: 6.00 Build 0)  -->

<svg
   version="1.1"
   id="Layer_1"
   x="0px"
   y="0px"
   viewBox="0 0 1906.5596 375.12027"
   xml:space="preserve"
   sodipodi:docname="logo.svg"
   inkscape:version="1.4.2 (f4327f4, 2025-05-13)"
   width="1906.5596"
   height="375.12027"
   inkscape:export-filename="Logo - V4.jpg"
   inkscape:export-xdpi="96"
   inkscape:export-ydpi="96"
   xmlns:inkscape="http://www.inkscape.org/namespaces/inkscape"
   xmlns:sodipodi="http://sodipodi.sourceforge.net/DTD/sodipodi-0.dtd"
   xmlns="http://www.w3.org/2000/svg"
   xmlns:svg="http://www.w3.org/2000/svg"><defs
   id="defs16" /><sodipodi:namedview
   id="namedview16"
   pagecolor="#505050"
   bordercolor="#ffffff"
   borderopacity="1"
   inkscape:showpageshadow="0"
   inkscape:pageopacity="0"
   inkscape:pagecheckerboard="1"
   inkscape:deskcolor="#d4d4d4"
   showgrid="true"
   inkscape:zoom="0.59277553"
   inkscape:cx="959.04769"
   inkscape:cy="-13.495834"
   inkscape:window-width="2560"
   inkscape:window-height="1364"
   inkscape:window-x="2544"
   inkscape:window-y="2160"
   inkscape:window-maximized="0"
   inkscape:current-layer="Layer_1"
   showguides="true"><inkscape:grid
     id="grid3"
     units="px"
     originx="-54.17745"
     originy="-62.439868"
     spacingx="1"
     spacingy="1"
     empcolor="#0099e5"
     empopacity="0.30196078"
     color="#0099e5"
     opacity="0.14902"
     empspacing="5"
     enabled="true"
     visible="true" /></sodipodi:namedview>
<style
   type="text/css"
   id="style1">
	.st0{fill:#162F4E;}
	.st1{fill:#1E8449;}
	.st2{fill:none;}
</style>






<g
   id="g5"
   transform="matrix(1.1301211,0,0,1.1301211,181.38272,-150.44095)"><polygon
     class="st0"
     points="422.5,94.4 461.5,94.4 461.5,77.1 422.5,77.1 422.5,50.6 466.3,50.6 466.3,33.1 401.7,33.1 401.7,135.7 422.5,135.7 "
     id="polygon1"
     style="fill:#007ce8;fill-opacity:1"
     transform="translate(-186.24218,215.18395)" /><path
     class="st0"
     d="m 323.45782,275.48395 c -22.7,0 -37.7,15.4 -37.7,37.6 v 1.9 c 0,22.4 14.9,37.8 37.7,37.8 22.8,0 37.7,-15.4 37.7,-37.8 v -1.7 c 0.1,-22.4 -14.9,-37.8 -37.7,-37.8 z m 17.6,39.5 c 0,14.4 -5.8,22.3 -17.5,22.3 -11.7,0 -17.5,-7.9 -17.5,-22.3 v -1.9 c 0,-14.3 5.8,-22.1 17.5,-22.1 11.7,0 17.5,7.8 17.5,22.3 z"
     id="path1"
     style="fill:#007ce8;fill-opacity:1" /><path
     class="st0"
     d="m 418.45782,276.48395 c -1.1,-0.3 -3,-0.4 -4.4,-0.4 -10.8,0 -18.1,6.7 -21.6,15.6 l -0.4,-14.3 h -19.3 v 73.6 h 19.9 v -35.5 c 0,-13 7,-20.1 20.2,-20.1 1.9,0 4.1,0.1 5.6,0.3 z"
     id="path2"
     style="fill:#007ce8;fill-opacity:1" /><polygon
     class="st0"
     points="652.7,135.7 666.4,84.2 680.2,135.7 701.1,135.7 723,62.1 703.4,62.1 689.7,114.9 676.5,62.1 656.7,62.1 643.4,114.6 630.2,62.1 610.1,62.1 631.8,135.7 "
     id="polygon2"
     style="fill:#007ce8;fill-opacity:1"
     transform="translate(-186.24218,215.18395)" /><path
     class="st0"
     d="m 577.05782,275.48395 c -19.1,0 -32,8.8 -33.2,24.5 h 18.8 c 0.7,-6.3 5.8,-9.4 14,-9.4 8.7,0 12.7,3.7 12.7,9.8 v 4.3 l -27,3.9 c -13.4,1.9 -21.4,9.3 -21.4,21.8 0,13 10,22.4 24.8,22.4 10.8,0 19.4,-5.1 23.8,-13.1 l 0.7,11.3 h 18.4 v -50.3 c -0.2,-15.4 -11.8,-25.2 -31.6,-25.2 z m 12.2,48.5 c 0,8.1 -8,13.8 -17.6,13.8 -7.3,0 -11.5,-3.1 -11.5,-8.4 0,-5.1 3.1,-7.7 9.3,-8.6 l 19.9,-2.7 v 5.9 z"
     id="path3"
     style="fill:#007ce8;fill-opacity:1" /><path
     class="st0"
     d="m 643.55782,315.38395 c 0,-13 7,-20.1 20.2,-20.1 1.9,0 4.1,0.1 5.6,0.3 v -19.1 c -1.1,-0.3 -3,-0.4 -4.4,-0.4 -10.8,0 -18.1,6.7 -21.6,15.6 l -0.4,-14.3 h -19.2 v 73.6 h 19.9 v -35.6 z"
     id="path4"
     style="fill:#007ce8;fill-opacity:1" /><path
     class="st0"
     d="m 733.95782,245.28395 v 41.9 c -4.3,-6.6 -12,-11.7 -22.8,-11.7 -19.7,0 -31.5,16 -31.5,37.7 v 1.9 c 0,22 12.3,37.8 32,37.8 12,0 19.8,-6.8 23.2,-13.4 l 0.6,11.5 h 18.5 v -105.7 z m 0.7,69.7 c 0,14.4 -6,22.4 -17.4,22.4 -11.3,0 -17.4,-8 -17.4,-22.4 v -1.9 c 0,-14.4 6.1,-22.4 17.4,-22.4 11.4,0 17.4,8 17.4,22.4 z"
     id="path5"
     style="fill:#007ce8;fill-opacity:1" /></g>









<g
   id="g4"
   transform="matrix(1.1301211,0,0,1.1301211,119.38272,-154.87639)"><polygon
     class="st0"
     points="480,321.4 480,304.1 401.7,304.1 401.7,321.4 430.5,321.4 430.5,405.5 451.4,405.5 451.4,321.4 "
     id="polygon5"
     style="fill:#007ce8;fill-opacity:1"
     transform="translate(641.40298,-55.641292)" /><path
     class="st0"
     d="m 1172.703,274.35871 c -11.7,0 -19.1,6 -22.9,12.6 v -42.7 h -20.1 v 105.6 h 19.9 v -40.8 c 0,-11.7 6.3,-18.5 15.5,-18.5 9.5,0 13.2,6.3 13.2,17 v 42.4 h 19.8 v -47.4 c 0.1,-16.7 -7.2,-28.2 -25.4,-28.2 z"
     id="path6"
     style="fill:#007ce8;fill-opacity:1" /><rect
     x="1210.0029"
     y="276.15869"
     class="st0"
     width="19.9"
     height="73.599998"
     id="rect6"
     style="fill:#007ce8;fill-opacity:1" /><path
     class="st0"
     d="m 1284.703,274.35871 c -12.3,0 -19.5,6.4 -23.2,13.3 l -0.6,-11.4 h -19.2 v 73.6 h 19.9 v -40.8 c 0,-11.7 6.3,-18.5 15.5,-18.5 9.5,0 13.2,6.3 13.2,17 v 42.4 h 19.8 v -47.4 c 0.1,-16.7 -7.2,-28.2 -25.4,-28.2 z"
     id="path7"
     style="fill:#007ce8;fill-opacity:1" /><polygon
     class="st0"
     points="680.3,405.5 700.3,405.5 700.3,379.2 707.2,372.2 728.6,405.5 750.8,405.5 721.3,360.1 749.7,331.8 726.3,331.8 700.3,358.2 700.3,299.8 680.3,299.8 "
     id="polygon7"
     style="fill:#007ce8;fill-opacity:1"
     transform="translate(641.40298,-55.641292)" /><rect
     x="1398.303"
     y="276.15869"
     class="st0"
     width="19.9"
     height="73.599998"
     id="rect7"
     style="fill:#007ce8;fill-opacity:1" /><path
     class="st0"
     d="m 1472.803,274.35871 c -12.3,0 -19.5,6.4 -23.2,13.3 l -0.6,-11.4 h -19.2 v 73.6 h 19.9 v -40.8 c 0,-11.7 6.3,-18.5 15.5,-18.5 9.5,0 13.2,6.3 13.2,17 v 42.4 h 19.8 v -47.4 c 0.1,-16.7 -7.2,-28.2 -25.4,-28.2 z"
     id="path8"
     style="fill:#007ce8;fill-opacity:1" /><path
     class="st0"
     d="m 1563.003,276.15871 -0.6,11.3 c -3.6,-6.5 -11.7,-13.1 -23.8,-13.1 -19.5,0 -31.5,16 -31.5,36.2 v 1.6 c 0,20.4 12.3,36.4 32,36.4 10.7,0 18.4,-5.4 22.2,-12.3 v 10.1 c 0,9.6 -5.3,15.3 -16.5,15.3 -9.4,0 -13.8,-2.9 -14.7,-8.4 h -21.3 c 1.4,13.4 13.1,22.7 34.7,22.7 24.5,0 37.9,-11.4 37.9,-31.8 v -67.9 h -18.4 z m -0.8,36 c 0,13 -6,21 -17.4,21 -11.2,0 -17.4,-8 -17.4,-21 v -1.6 c 0,-13 6.1,-21 17.4,-21 11.4,0 17.4,8 17.4,21 z"
     id="path9"
     style="fill:#007ce8;fill-opacity:1" /><circle
     class="st0"
     cx="1408.603"
     cy="241.15869"
     r="11.1"
     id="circle9"
     style="fill:#007ce8;fill-opacity:1" /><circle
     class="st0"
     cx="1220.303"
     cy="241.15869"
     r="11.1"
     id="circle10"
     style="fill:#007ce8;fill-opacity:1" /></g>


<path
   class="st1"
   d="m 1229.8979,125.32784 h -128.5917 c -8.434,0 -15.3346,6.77139 -15.3346,15.04754 v 94.36952 c 0,8.27613 6.9006,15.04752 15.3346,15.04752 h 128.4822 c 8.4341,0 15.3346,-6.77139 15.3346,-15.04752 v -94.36952 c 0.1095,-8.27615 -6.791,-15.04754 -15.2251,-15.04754 z m -94.8554,106.40754 h -21.5781 v -88.24302 h 21.5781 z m 83.464,-69.43361 h -23.1114 v 69.5411 h -22.0161 v -69.5411 h -24.0973 l -4.1622,-18.70193 h 78.316 z"
   id="path12"
   style="fill:#1cd000;fill-opacity:1;stroke-width:1.08503" />



<g
   id="g3"
   transform="translate(-47.497267,-31.179735)"><path
     class="st0"
     d="m 256,314 v 42.3 c 0,20.8 -13.6,50 -43.8,50 -22.7,0 -37.6,-15 -43.5,-22.2 C 146,383.4 128.2,376.5 115.9,363.4 101.9,348.6 99,330 98.5,320.7 69.9,305.3 61.4,283.6 59.4,267.8 c -1.5,-11.8 0.4,-22 2,-27.8 -5.4,-7.2 -15,-23.9 -13.8,-50.7 1.3,-29.2 25.7,-49.3 37,-57.1 -2.2,-10.3 -3.5,-30.5 12.3,-49 16.9,-19.8 43.2,-21.2 54.7,-20.7 19,-29.4 46.6,-34.6 65.1,-29.7 22.5,5.9 37,25.4 37,49.6 v 54.4 c 0,4.6 -3.7,8.4 -8.4,8.4 v 0 c -4.6,0 -8.4,-3.7 -8.4,-8.4 V 82.5 c 0,-16.4 -9.6,-29.5 -24.6,-33.5 -14.3,-3.8 -34.7,1.2 -49,26.4 -1.7,3 -5,4.6 -8.4,4.2 -0.3,0 -29.6,-3.7 -45.3,14.6 -15.5,18.1 -7.6,38.5 -7.5,38.7 1.6,3.9 0,8.4 -3.7,10.4 -0.3,0.2 -32.9,18.9 -34.1,46.8 -1.3,28.4 11.7,41.5 12.2,42 2.5,2.4 3.2,5.9 2,9.1 -0.7,1.7 -16.3,43.7 31.9,66.7 3.1,1.5 5,4.7 4.7,8.1 0,0.2 -1,21.2 13,36 9.7,10.2 24.6,15.4 44.3,15.4 h 0.5 c 2.9,0 5.5,1.5 7,3.9 0.1,0.1 12.2,18.3 32.2,18.3 20.5,0 27.1,-22.4 27.1,-33.3 v -42.6 c 0,-4.7 3.9,-8.5 8.6,-8.4 4.7,0.1 8.2,4.1 8.2,8.7 z"
     id="path10"
     style="fill:#007ce8;fill-opacity:1" /><path
     class="st0"
     d="M 416.6,246 402,267 317.4,388 c -8.2,11.1 -21.2,17.7 -35,17.7 h -39.9 c 17.1,-12.3 25.1,-34.4 25.1,-51.7 v -42.2 c 0,-0.6 0,-1.3 -0.1,-1.9 v -4.5 l 11.2,-7.7 c 12.4,-8.5 19.8,-22.6 19.8,-37.7 v -68 c 0,-15.3 -7.7,-29.6 -20.4,-38.1 l -13,-8.6 V 94.4 L 265.3,63 c 0,-8.6 -4.2,-18.5 -10.8,-24.4 -3.1,-3.3 -6.9,-4.5 -8.9,-5 -0.1,0 -0.2,0 -0.3,-0.1 -0.3,-0.1 -0.6,-0.1 -0.9,-0.2 h 29.1 c 23.3,0 27.2,6.6 70,67.1 20.7,29.2 41.9,59.2 58.4,82.3 5.4,7.6 10.3,14.5 14.5,20.4 9.2,12.9 9.2,30.1 0.2,42.9 z"
     id="path11"
     style="fill:#007ce8;fill-opacity:1" /><path
     class="st1"
     d="M 218.9,201.9 191.2,174.5 V 136 c 9.6,-3.1 16.6,-12.2 16.6,-22.9 C 207.8,99.8 197,89 183.7,89 c -13.3,0 -24.1,10.8 -24.1,24.1 0,10.7 7,19.8 16.6,22.9 v 44.7 l 36.4,36.1 h 74.1 v -14.9 z m -35.1,-79.7 c -5.1,0 -9.2,-4.1 -9.2,-9.2 0,-5.1 4.1,-9.2 9.2,-9.2 5.1,0 9.2,4.1 9.2,9.2 0,5.1 -4.1,9.2 -9.2,9.2 z"
     id="path13"
     style="fill:#1cd000;fill-opacity:1" /><path
     class="st1"
     d="m 140.8,278.6 c 2,-3.5 3.2,-7.6 3.2,-12 0,-13.3 -10.8,-24.1 -24.1,-24.1 -13.3,0 -24.1,10.8 -24.1,24.1 0,13.3 10.8,24.1 24.1,24.1 3.5,0 6.8,-0.8 9.8,-2.1 l 23.3,23.3 v 21.6 c 0,4.1 3.3,7.5 7.5,7.5 4.2,0 7.5,-3.3 7.5,-7.5 v -27.8 z m -20.9,-2.9 c -5.1,0 -9.2,-4.1 -9.2,-9.2 0,-5.1 4.1,-9.2 9.2,-9.2 5.1,0 9.2,4.1 9.2,9.2 0,5.1 -4.2,9.2 -9.2,9.2 z"
     id="path14"
     style="fill:#1cd000;fill-opacity:1" /><path
     class="st1"
     d="m 176.4,244.3 -36.5,-37.9 v -18.8 c 9.7,-3.2 16.6,-12.2 16.6,-22.9 0,-13.3 -10.8,-24.1 -24.1,-24.1 -13.3,0 -24.1,10.8 -24.1,24.1 0,10.7 7,19.8 16.6,22.9 v 24.8 l 45.1,46.9 h 116.9 v -15 z m -44,-70.5 c -5.1,0 -9.2,-4.1 -9.2,-9.2 0,-5.1 4.1,-9.2 9.2,-9.2 5,0 9.2,4.1 9.2,9.2 0,5.1 -4.2,9.2 -9.2,9.2 z"
     id="path15"
     style="fill:#1cd000;fill-opacity:1" /><path
     class="st1"
     d="m 195.6,300.2 v 51.6 c 0,4.1 3.3,7.5 7.5,7.5 4.1,0 7.5,-3.3 7.5,-7.5 v -45.1 l 17.9,-17 h 23.1 v -14.9 h -29 z"
     id="path16"
     style="fill:#1cd000;fill-opacity:1" /></g>
</svg>
